<svg width="20.397949" height="19.600342" viewBox="0 0 20.3979 19.6003" fill="none" xmlns="http://www.w3.org/2000/svg" xmlns:xlink="http://www.w3.org/1999/xlink">
	<desc>
			Created with Pixso.
	</desc>
	<defs/>
	<path id="Vector" d="M1.29163 8.51514L15.7196 8.51514L9.41626 2.21191C8.91248 1.70825 8.91248 0.881592 9.41626 0.377686C9.53577 0.258057 9.67773 0.163086 9.83398 0.0981445C9.99023 0.0334473 10.1577 0 10.3269 0C10.4961 0 10.6636 0.0334473 10.8198 0.0981445C10.9761 0.163086 11.118 0.258057 11.2375 0.377686C14.1619 3.30078 15.035 4.18042 20.3979 9.80054C13.6257 16.8374 12.9425 17.5195 11.2375 19.2231C10.996 19.4646 10.6685 19.6003 10.3269 19.6003C9.98535 19.6003 9.65771 19.4646 9.41626 19.2231C9.17468 18.9817 9.03906 18.6541 9.03906 18.3125C9.03906 17.9709 9.17468 17.6433 9.41626 17.4019L15.7196 11.0986L1.29163 11.0986C0.581299 11.0986 0 10.5173 0 9.80688C0 9.09644 0.581299 8.51514 1.29163 8.51514Z" fill="#000000" fill-opacity="1.000000" fill-rule="nonzero"/>
</svg>
