<svg width="24.000000" height="24.000000" viewBox="0 0 24 24" fill="none" xmlns="http://www.w3.org/2000/svg" xmlns:xlink="http://www.w3.org/1999/xlink">
	<desc>
			Created with Pixso.
	</desc>
	<defs>
		<clipPath id="clip1_118">
			<rect id="Frame" width="24.000000" height="24.000000" fill="white" fill-opacity="0"/>
		</clipPath>
	</defs>
	<rect id="Frame" width="24.000000" height="24.000000" fill="#FFFFFF" fill-opacity="0"/>
	<g clip-path="url(#clip1_118)">
		<path id="Vector" d="M12 7C11.45 7 11 7.44995 11 8L11 11L8 11C7.45001 11 7 11.45 7 12C7 12.55 7.45001 13 8 13L11 13L11 16C11 16.55 11.45 17 12 17C12.55 17 13 16.55 13 16L13 13L16 13C16.55 13 17 12.55 17 12C17 11.45 16.55 11 16 11L13 11L13 8C13 7.44995 12.55 7 12 7ZM12 2C6.47998 2 2 6.47998 2 12C2 17.52 6.47998 22 12 22C17.52 22 22 17.52 22 12C22 6.47998 17.52 2 12 2ZM12 20C7.59003 20 4 16.4099 4 12C4 7.59009 7.59003 4 12 4C16.41 4 20 7.59009 20 12C20 16.4099 16.41 20 12 20Z" fill="#000000" fill-opacity="1.000000" fill-rule="nonzero"/>
	</g>
</svg>
